<svg width="350" height="26" viewBox="0 0 350 26" fill="none" xmlns="http://www.w3.org/2000/svg">
<line x1="344.26" y1="6" x2="344.26" y2="2" stroke="black" stroke-width="1.47969"/>
<line x1="346.316" y1="6" x2="346.316" y2="2" stroke="black" stroke-width="1.36842"/>
<path d="M348.5 10C348.5 11.5842 348.124 12.9941 347.543 13.9907C346.954 14.9996 346.215 15.5 345.5 15.5C344.785 15.5 344.046 14.9996 343.457 13.9907C342.876 12.9941 342.5 11.5842 342.5 10C342.5 8.41576 342.876 7.00595 343.457 6.00929C344.046 5.00037 344.785 4.5 345.5 4.5C346.215 4.5 346.954 5.00037 347.543 6.00929C348.124 7.00595 348.5 8.41576 348.5 10Z" fill="#FF0303" stroke="black"/>
<line x1="315.26" y1="9" x2="315.26" y2="5" stroke="black" stroke-width="1.47969"/>
<line x1="317.316" y1="9" x2="317.316" y2="5" stroke="black" stroke-width="1.36842"/>
<path d="M319.5 13C319.5 14.5842 319.124 15.9941 318.543 16.9907C317.954 17.9996 317.215 18.5 316.5 18.5C315.785 18.5 315.046 17.9996 314.457 16.9907C313.876 15.9941 313.5 14.5842 313.5 13C313.5 11.4158 313.876 10.0059 314.457 9.00929C315.046 8.00037 315.785 7.5 316.5 7.5C317.215 7.5 317.954 8.00037 318.543 9.00929C319.124 10.0059 319.5 11.4158 319.5 13Z" fill="#FFE603" stroke="black"/>
<line x1="287.26" y1="11" x2="287.26" y2="7" stroke="black" stroke-width="1.47969"/>
<line x1="289.316" y1="11" x2="289.316" y2="7" stroke="black" stroke-width="1.36842"/>
<path d="M291.5 15C291.5 16.5842 291.124 17.9941 290.543 18.9907C289.954 19.9996 289.215 20.5 288.5 20.5C287.785 20.5 287.046 19.9996 286.457 18.9907C285.876 17.9941 285.5 16.5842 285.5 15C285.5 13.4158 285.876 12.0059 286.457 11.0093C287.046 10.0004 287.785 9.5 288.5 9.5C289.215 9.5 289.954 10.0004 290.543 11.0093C291.124 12.0059 291.5 13.4158 291.5 15Z" fill="#FF0303" stroke="black"/>
<line x1="257.26" y1="14" x2="257.26" y2="10" stroke="black" stroke-width="1.47969"/>
<line x1="259.316" y1="14" x2="259.316" y2="10" stroke="black" stroke-width="1.36842"/>
<path d="M261.5 18C261.5 19.5842 261.124 20.9941 260.543 21.9907C259.954 22.9996 259.215 23.5 258.5 23.5C257.785 23.5 257.046 22.9996 256.457 21.9907C255.876 20.9941 255.5 19.5842 255.5 18C255.5 16.4158 255.876 15.0059 256.457 14.0093C257.046 13.0004 257.785 12.5 258.5 12.5C259.215 12.5 259.954 13.0004 260.543 14.0093C261.124 15.0059 261.5 16.4158 261.5 18Z" fill="#FFE603" stroke="black"/>
<line x1="228.26" y1="15" x2="228.26" y2="11" stroke="black" stroke-width="1.47969"/>
<line x1="230.316" y1="15" x2="230.316" y2="11" stroke="black" stroke-width="1.36842"/>
<path d="M232.5 19C232.5 20.5842 232.124 21.9941 231.543 22.9907C230.954 23.9996 230.215 24.5 229.5 24.5C228.785 24.5 228.046 23.9996 227.457 22.9907C226.876 21.9941 226.5 20.5842 226.5 19C226.5 17.4158 226.876 16.0059 227.457 15.0093C228.046 14.0004 228.785 13.5 229.5 13.5C230.215 13.5 230.954 14.0004 231.543 15.0093C232.124 16.0059 232.5 17.4158 232.5 19Z" fill="#FF0303" stroke="black"/>
<line x1="195.26" y1="16" x2="195.26" y2="12" stroke="black" stroke-width="1.47969"/>
<line x1="197.316" y1="16" x2="197.316" y2="12" stroke="black" stroke-width="1.36842"/>
<path d="M199.5 20C199.5 21.5842 199.124 22.9941 198.543 23.9907C197.954 24.9996 197.215 25.5 196.5 25.5C195.785 25.5 195.046 24.9996 194.457 23.9907C193.876 22.9941 193.5 21.5842 193.5 20C193.5 18.4158 193.876 17.0059 194.457 16.0093C195.046 15.0004 195.785 14.5 196.5 14.5C197.215 14.5 197.954 15.0004 198.543 16.0093C199.124 17.0059 199.5 18.4158 199.5 20Z" fill="#FFE603" stroke="black"/>
<line x1="165.26" y1="16" x2="165.26" y2="12" stroke="black" stroke-width="1.47969"/>
<line x1="167.316" y1="16" x2="167.316" y2="12" stroke="black" stroke-width="1.36842"/>
<path d="M169.5 20C169.5 21.5842 169.124 22.9941 168.543 23.9907C167.954 24.9996 167.215 25.5 166.5 25.5C165.785 25.5 165.046 24.9996 164.457 23.9907C163.876 22.9941 163.5 21.5842 163.5 20C163.5 18.4158 163.876 17.0059 164.457 16.0093C165.046 15.0004 165.785 14.5 166.5 14.5C167.215 14.5 167.954 15.0004 168.543 16.0093C169.124 17.0059 169.5 18.4158 169.5 20Z" fill="#FF0303" stroke="black"/>
<line x1="129.26" y1="16" x2="129.26" y2="12" stroke="black" stroke-width="1.47969"/>
<line x1="131.316" y1="16" x2="131.316" y2="12" stroke="black" stroke-width="1.36842"/>
<path d="M133.5 20C133.5 21.5842 133.124 22.9941 132.543 23.9907C131.954 24.9996 131.215 25.5 130.5 25.5C129.785 25.5 129.046 24.9996 128.457 23.9907C127.876 22.9941 127.5 21.5842 127.5 20C127.5 18.4158 127.876 17.0059 128.457 16.0093C129.046 15.0004 129.785 14.5 130.5 14.5C131.215 14.5 131.954 15.0004 132.543 16.0093C133.124 17.0059 133.5 18.4158 133.5 20Z" fill="#FFE603" stroke="black"/>
<line x1="99.2602" y1="14" x2="99.2602" y2="10" stroke="black" stroke-width="1.47969"/>
<line x1="101.316" y1="14" x2="101.316" y2="10" stroke="black" stroke-width="1.36842"/>
<path d="M103.5 18C103.5 19.5842 103.124 20.9941 102.543 21.9907C101.954 22.9996 101.215 23.5 100.5 23.5C99.7852 23.5 99.0456 22.9996 98.457 21.9907C97.8756 20.9941 97.5 19.5842 97.5 18C97.5 16.4158 97.8756 15.0059 98.457 14.0093C99.0456 13.0004 99.7852 12.5 100.5 12.5C101.215 12.5 101.954 13.0004 102.543 14.0093C103.124 15.0059 103.5 16.4158 103.5 18Z" fill="#FF0303" stroke="black"/>
<line x1="66.2602" y1="12" x2="66.2602" y2="8" stroke="black" stroke-width="1.47969"/>
<line x1="68.3158" y1="12" x2="68.3158" y2="8" stroke="black" stroke-width="1.36842"/>
<path d="M70.5 16C70.5 17.5842 70.1244 18.9941 69.543 19.9907C68.9544 20.9996 68.2148 21.5 67.5 21.5C66.7852 21.5 66.0456 20.9996 65.457 19.9907C64.8756 18.9941 64.5 17.5842 64.5 16C64.5 14.4158 64.8756 13.0059 65.457 12.0093C66.0456 11.0004 66.7852 10.5 67.5 10.5C68.2148 10.5 68.9544 11.0004 69.543 12.0093C70.1244 13.0059 70.5 14.4158 70.5 16Z" fill="#FFE603" stroke="black"/>
<line x1="39.2602" y1="10" x2="39.2602" y2="6" stroke="black" stroke-width="1.47969"/>
<line x1="41.3158" y1="10" x2="41.3158" y2="6" stroke="black" stroke-width="1.36842"/>
<path d="M43.5 14C43.5 15.5842 43.1244 16.9941 42.543 17.9907C41.9544 18.9996 41.2148 19.5 40.5 19.5C39.7852 19.5 39.0456 18.9996 38.457 17.9907C37.8756 16.9941 37.5 15.5842 37.5 14C37.5 12.4158 37.8756 11.0059 38.457 10.0093C39.0456 9.00037 39.7852 8.5 40.5 8.5C41.2148 8.5 41.9544 9.00037 42.543 10.0093C43.1244 11.0059 43.5 12.4158 43.5 14Z" fill="#FF0303" stroke="black"/>
<line x1="6.26016" y1="7" x2="6.26016" y2="3" stroke="black" stroke-width="1.47969"/>
<line x1="8.31579" y1="7" x2="8.31579" y2="3" stroke="black" stroke-width="1.36842"/>
<path d="M10.5 11C10.5 12.5842 10.1244 13.9941 9.54298 14.9907C8.95444 15.9996 8.21484 16.5 7.5 16.5C6.78516 16.5 6.04556 15.9996 5.45702 14.9907C4.87563 13.9941 4.5 12.5842 4.5 11C4.5 9.41576 4.87563 8.00595 5.45702 7.00929C6.04556 6.00037 6.78516 5.5 7.5 5.5C8.21484 5.5 8.95444 6.00037 9.54298 7.00929C10.1244 8.00595 10.5 9.41576 10.5 11Z" fill="#FFE603" stroke="black"/>
<path d="M0.599998 3.01538C126.4 14.9657 202.829 14.6758 349.409 2.02162" stroke="black" stroke-width="2.13222"/>
</svg>
